<svg width="96" height="47" viewBox="0 0 96 47" fill="none" xmlns="http://www.w3.org/2000/svg">
<path d="M36.9 34.425L22.3 41.225V20.225H22.4L36.9 13.425V18.925H40.8V10.325C40.8 9.725 40.4 9.125 39.9 8.825L21.5 0.225001C20.8 -0.0749992 19.9 -0.0749992 19.2 0.225001L0.9 8.825C0.3 9.125 0 9.725 0 10.325V35.825C0 36.425 0.4 37.025 1 37.325L19.3 45.825C20 46.125 20.9 46.125 21.6 45.825L39.9 37.325C40.5 37.025 40.9 36.425 40.9 35.825V28.625H37V34.425H36.9ZM18.4 41.225L3.9 34.425V13.425L18.4 20.225H18.5V41.225H18.4ZM20.9 16.625L20.4 16.925L19.8 16.625L6.6 10.425L20.3 3.925L34 10.425L20.9 16.625Z" fill="#3EC7C6"/>
<path d="M36.8 34.425L22.2 41.225V20.225H22.3L36.8 13.425V34.425ZM40.7 10.325C40.7 9.725 40.3 9.125 39.8 8.825L21.5 0.225001C20.8 -0.0749992 19.9 -0.0749992 19.2 0.225001L0.900001 8.825C0.300001 9.125 -7.62939e-07 9.725 -7.62939e-07 10.325V18.925H3.9V13.425L18.4 20.225H18.5V41.125L3.9 34.325V28.525H-7.62939e-07V35.725C-7.62939e-07 36.325 0.399999 36.925 0.999999 37.225L19.2 45.825C19.9 46.125 20.8 46.125 21.5 45.825L39.8 37.325C40.4 37.025 40.8 36.425 40.8 35.825V10.325H40.7ZM20.9 16.625L20.4 16.925L19.8 16.625L6.7 10.425L20.4 3.925L34.1 10.425L20.9 16.625Z" transform="translate(54.2998)" fill="#3EC7C6"/>
<path d="M1.52588e-06 1.9076C1.52588e-06 3.0076 0.899999 3.8076 1.9 3.8076H30.2C31.3 3.8076 32.1 2.9076 32.1 1.9076C32.1 0.907602 31.2 0.00760465 30.2 0.00760465H2C0.900001 -0.0923954 1.52588e-06 0.807602 1.52588e-06 1.9076Z" transform="translate(31.4004 21.9175)" fill="#3EC7C6"/>
</svg>
