<svg width="82" height="70" viewBox="0 0 82 70" fill="none" xmlns="http://www.w3.org/2000/svg">
<path d="M66.102 37.8537V7.63789C66.102 3.44125 62.6714 -1.60089e-07 58.4878 -1.60089e-07H7.61429C3.43061 -1.60089e-07 0 3.44125 0 7.63789V37.8537C0 42.0504 3.43061 45.4916 7.61429 45.4916H9.70612V54.5564C9.70612 56.235 11.1286 57.6619 12.802 57.6619C13.7224 57.6619 14.5592 57.2422 15.1449 56.5707L24.6837 45.4916H58.5714C62.7551 45.4916 66.102 42.0504 66.102 37.8537ZM23.6796 41.295C23.0939 41.295 22.5082 41.5468 22.0898 42.0504L13.8898 51.6187V43.4772C13.8898 42.3022 12.9694 41.3789 11.798 41.3789H7.61429C5.6898 41.3789 4.18367 39.8681 4.18367 37.9376V7.72182C4.18367 5.79137 5.6898 4.28058 7.61429 4.28058H58.5714C60.4959 4.28058 62.002 5.79137 62.002 7.72182V37.9376C62.002 39.8681 60.4959 41.3789 58.5714 41.3789H23.6796V41.295ZM57.3163 57.9137H27.5286C26.3571 57.9137 25.4367 56.9904 25.4367 55.8153C25.4367 54.6403 26.3571 53.717 27.5286 53.717H58.3204C58.9061 53.717 59.4918 53.9688 59.9102 54.4724L68.1102 64.0408V55.8993C68.1102 54.7242 69.0306 53.801 70.202 53.801H74.3857C76.3102 53.801 77.8163 52.2902 77.8163 50.3597V20.1439C77.8163 18.2134 76.3102 16.7026 74.3857 16.7026C73.2143 16.7026 72.2939 15.7794 72.2939 14.6043C72.2939 13.4293 73.2143 12.506 74.3857 12.506C78.5694 12.506 82 15.9472 82 20.1439V50.3597C82 54.5564 78.5694 57.9976 74.3857 57.9976H72.2939V66.9784C72.2939 68.3213 71.5408 69.4125 70.2857 69.8321C69.951 70 69.5327 70 69.198 70C68.3612 70 67.5245 69.6643 66.8551 68.9089L57.3163 57.9137ZM35.8959 23.5012C35.8959 25.0959 34.6408 26.3549 33.051 26.3549C31.4612 26.3549 30.2061 25.0959 30.2061 23.5012C30.2061 21.9065 31.4612 20.6475 33.051 20.6475C34.6408 20.6475 35.8959 21.9904 35.8959 23.5012ZM45.351 23.5012C45.351 25.0959 44.0959 26.3549 42.5061 26.3549C40.9163 26.3549 39.6612 25.0959 39.6612 23.5012C39.6612 21.9065 40.9163 20.6475 42.5061 20.6475C44.0959 20.7314 45.351 21.9904 45.351 23.5012ZM26.4408 23.5012C26.4408 25.0959 25.1857 26.3549 23.5959 26.3549C22.0061 26.3549 20.751 25.0959 20.751 23.5012C20.751 21.9065 22.0061 20.6475 23.5959 20.6475C25.1857 20.7314 26.4408 21.9904 26.4408 23.5012Z" fill="#3EC7C6"/>
</svg>
