<svg width="85" height="57" viewBox="0 0 85 57" fill="none" xmlns="http://www.w3.org/2000/svg">
<path d="M76.062 17.6003V8.84483H67.2135V3.40812e-07H0V39.3997H8.84858V48.1552H17.6972V57H85V17.6003H76.062ZM62.8339 24.569C62.1188 24.7476 61.4038 25.0157 60.6888 25.2837C56.9348 26.8919 54.0747 30.0188 52.734 33.8605C52.6446 34.2179 52.4658 34.5752 52.3764 34.9326H14.837C14.7476 34.5752 14.6583 34.2179 14.4795 33.8605C13.1388 30.0188 10.2787 26.8919 6.52471 25.2837C5.80967 25.0157 5.09464 24.7476 4.3796 24.569V14.8307C5.09464 14.652 5.80967 14.384 6.52471 14.116C10.2787 12.5078 13.1388 9.38088 14.4795 5.53918C14.5689 5.18182 14.7476 4.82445 14.837 4.46708H52.4658C52.5552 4.82445 52.6446 5.18182 52.8233 5.53918C54.164 9.38088 57.0242 12.5078 60.7781 14.116C61.4932 14.384 62.2082 14.652 62.9232 14.8307V24.569H62.8339ZM62.8339 29.2147V35.0219H57.0242C57.2029 34.6646 57.3817 34.3072 57.5605 33.9498C58.2755 32.5204 59.3481 31.3589 60.6888 30.3762C61.4038 29.8401 62.1188 29.4828 62.8339 29.2147ZM62.8339 10.185C62.1188 9.91693 61.4038 9.55956 60.6888 9.02351C59.3481 8.13009 58.2755 6.87931 57.5605 5.44984C57.3817 5.09248 57.2029 4.73511 57.0242 4.37774H62.8339V10.185ZM10.1893 4.37774C10.0105 4.73511 9.92114 5.09248 9.653 5.44984C8.93796 6.87931 7.77603 8.13009 6.52471 9.02351C5.89905 9.47022 5.18402 9.82759 4.3796 10.185V4.37774H10.1893ZM4.3796 29.2147C5.09464 29.4828 5.80967 29.8401 6.52471 30.3762C7.86541 31.2696 8.93796 32.5204 9.653 33.9498C9.83176 34.3072 10.0105 34.6646 10.1893 35.0219H4.3796V29.2147ZM13.2282 39.3997H67.3028V13.2226H71.6824V43.7774H13.2282V39.3997ZM80.531 52.6223H22.0768V48.1552H76.1514V22.0674H80.531V52.6223Z" fill="white"/>
<path d="M9.653 -6.81623e-07C4.29022 -6.81623e-07 -6.81912e-07 4.2884 -6.81912e-07 9.6489C-6.81912e-07 15.0094 4.29022 19.2978 9.653 19.2978C15.0158 19.2978 19.306 15.0094 19.306 9.6489C19.3954 4.37774 15.0158 -6.81623e-07 9.653 -6.81623e-07ZM9.653 14.9201C6.79285 14.9201 4.3796 12.5972 4.3796 9.6489C4.3796 6.78997 6.70347 4.37774 9.653 4.37774C12.6025 4.37774 14.9264 6.70063 14.9264 9.6489C14.9264 12.5972 12.6025 14.9201 9.653 14.9201Z" transform="translate(23.9531 10.0063)" fill="white"/>
<path d="M8.22292 6.81623e-07H2.23449C0.983176 6.81623e-07 1.70478e-07 0.982759 1.70478e-07 2.23354C1.70478e-07 3.48433 0.983176 4.46709 2.23449 4.46709H8.22292C9.47424 4.46709 10.4574 3.48433 10.4574 2.23354C10.4574 0.982759 9.47424 6.81623e-07 8.22292 6.81623e-07Z" transform="translate(8.75879 17.5112)" fill="white"/>
<path d="M8.22293 6.81623e-07H2.23449C0.983176 6.81623e-07 6.81912e-07 0.982759 6.81912e-07 2.23354C6.81912e-07 3.48433 0.983176 4.46709 2.23449 4.46709H8.22293C9.47424 4.46709 10.4574 3.48433 10.4574 2.23354C10.4574 0.982759 9.47424 6.81623e-07 8.22293 6.81623e-07Z" transform="translate(47.998 17.5112)" fill="white"/>
</svg>
