<svg width="82" height="64" viewBox="0 0 82 64" fill="none" xmlns="http://www.w3.org/2000/svg">
<path d="M78.6132 30.165C75.2102 23.3622 69.8371 18.5287 63.9267 16.9175C59.8073 15.9329 55.9565 16.4699 52.6431 18.5287C50.0461 19.4238 47.3595 19.9608 44.5834 20.2294V14.8587C44.5834 13.2476 44.9416 9.3986 48.1655 9.3986C51.4789 9.3986 55.3296 8.05594 55.3296 1.79021C55.3296 0.805594 54.5237 1.70728e-07 53.5386 1.70728e-07C52.5535 1.70728e-07 51.7476 0.805594 51.7476 1.79021C51.7476 5.19161 50.4938 5.81818 48.1655 5.81818C43.7774 5.81818 41.0013 9.3986 41.0013 14.8587V20.3189C37.2401 20.2294 33.3894 19.5133 29.8073 18.0811C26.4938 15.9329 22.5535 15.3063 18.4341 16.4699C12.4341 18.0811 6.97146 23.0042 3.47892 29.986C-2.52108 41.8909 -0.550929 56.1231 7.77743 61.6727C10.1058 63.1944 12.6132 64 15.3894 64C16.6431 64 17.9864 63.821 19.3297 63.4629C25.1506 61.9413 30.5237 57.1972 34.1058 50.5734C38.7625 48.6042 44.0461 48.6042 48.7028 50.3944C52.1953 56.9287 57.4789 61.4937 63.2102 63.0154C67.3296 64.0895 71.1804 63.4629 74.4938 61.2252C82.5535 55.8545 84.4341 41.8909 78.6132 30.165ZM72.3446 58.2713C69.9267 59.8825 66.9714 60.3301 63.9267 59.5245C59.0908 58.2713 54.5237 54.1538 51.5685 48.4252C51.2998 47.8881 50.7625 47.4406 50.1356 47.172L49.7774 47.0825C44.1356 44.8448 37.6879 45.0238 32.1356 47.4406C31.5983 47.7091 31.1506 48.1566 30.7923 48.6937C27.7476 54.5119 23.0909 58.8084 18.1655 60.0615C15.0312 60.8671 12.0759 60.4196 9.56847 58.7189C2.67295 54.1538 1.32967 41.9804 6.5237 31.5972C9.47892 25.6 14.2252 21.3035 19.2401 19.9608C20.3147 19.6923 21.2998 19.5133 22.2849 19.5133C24.3446 19.5133 26.2252 20.0504 27.9267 21.214C28.0162 21.3035 28.1058 21.3035 28.2849 21.393C36.5237 24.6154 45.4789 24.7944 53.8073 21.9301L54.0759 21.8406C54.255 21.7511 54.3446 21.751 54.5237 21.6615C57.0311 20.0504 59.8968 19.6028 63.0311 20.4084C67.867 21.6615 72.5237 25.958 75.4789 31.7762C80.4938 41.8909 79.1505 53.7958 72.3446 58.2713Z" fill="#3EC7C6"/>
<path d="M8.0597 -6.82911e-07C3.58209 -6.82911e-07 0 3.58042 0 8.05594C0 12.5315 3.58209 16.1119 8.0597 16.1119C12.5373 16.1119 16.1194 12.5315 16.1194 8.05594C16.1194 3.58042 12.5373 -6.82911e-07 8.0597 -6.82911e-07ZM8.0597 12.5315C5.55224 12.5315 3.58209 10.5622 3.58209 8.05594C3.58209 5.54965 5.55224 3.58042 8.0597 3.58042C10.5672 3.58042 12.5373 5.54965 12.5373 8.05594C12.5373 10.5622 10.5672 12.5315 8.0597 12.5315Z" transform="translate(53.5391 29.5386)" fill="#3EC7C6"/>
<path d="M12.5373 5.37063H8.95522V1.79021C8.95522 0.805594 8.14925 0 7.16418 0C6.1791 0 5.37313 0.805594 5.37313 1.79021V5.37063H1.79104C0.80597 5.37063 0 6.17622 0 7.16084C0 8.14545 0.80597 8.95105 1.79104 8.95105H5.37313V12.5315C5.37313 13.5161 6.1791 14.3217 7.16418 14.3217C8.14925 14.3217 8.95522 13.5161 8.95522 12.5315V8.95105H12.5373C13.5224 8.95105 14.3284 8.14545 14.3284 7.16084C14.3284 6.17622 13.5224 5.37063 12.5373 5.37063Z" transform="translate(12.3447 30.6128)" fill="#3EC7C6"/>
</svg>
