<svg width="80" height="62" viewBox="0 0 80 62" fill="none" xmlns="http://www.w3.org/2000/svg">
<path d="M7.32427e-08 2.79289V47.9496H66.6266V2.79289C66.6266 1.25042 65.3949 8.81419e-08 63.8756 8.81419e-08H2.75102C1.23167 2.48885e-07 7.32427e-08 1.25042 7.32427e-08 2.79289ZM39.8842 21.7164H25.2383V16.4279C25.2383 12.3129 28.5158 8.98549 32.5533 8.98549C34.5799 8.98549 36.4167 9.82138 37.7308 11.1717C39.0608 12.5058 39.8842 14.3704 39.8842 16.4279V21.7164V21.7164Z" transform="translate(6.69922 2)" stroke="#3EC7C6" stroke-width="4" stroke-miterlimit="10" stroke-linecap="round" stroke-linejoin="round"/>
<path d="M76 7.26013e-08V3.02198C76 6.91194 72.9125 10.0464 69.0966 10.0464H6.91916C3.10327 10.0464 0 6.91194 0 3.02198V7.26013e-08H76Z" transform="translate(2 49.9536)" stroke="#3EC7C6" stroke-width="4" stroke-miterlimit="10" stroke-linecap="round" stroke-linejoin="round"/>
<path d="M-4.58455e-08 -4.79492e-08H4.55208" transform="translate(37.7305 54.9785)" stroke="#3EC7C6" stroke-width="4" stroke-miterlimit="10" stroke-linecap="round" stroke-linejoin="round"/>
<path d="M21.0734 19.151H3.33863C1.49475 19.151 -7.08171e-08 17.6335 -7.08171e-08 15.7615V-7.16202e-08H24.4121V15.7615C24.4121 17.6335 22.9173 19.151 21.0734 19.151Z" transform="translate(27.0518 23.7178)" stroke="#3EC7C6" stroke-width="4" stroke-miterlimit="10" stroke-linecap="round" stroke-linejoin="round"/>
</svg>
