<svg width="71" height="64" viewBox="0 0 71 64" fill="none" xmlns="http://www.w3.org/2000/svg">
<path d="M0.0437098 23.2633C0.0698684 23.6986 0.268147 24.1056 0.594927 24.3949C0.921707 24.6842 1.35022 24.8321 1.7862 24.806C2.22218 24.7799 2.62991 24.5819 2.91969 24.2557C3.20948 23.9294 3.35758 23.5016 3.33142 23.0664C3.16226 20.4349 3.54493 17.7971 4.45495 15.3216C5.36497 12.8461 6.78233 10.5874 8.61642 8.68993C10.285 6.97216 12.2834 5.60793 14.4921 4.6788C16.7009 3.74967 19.0746 3.27472 21.4714 3.28236C25.129 3.28236 29.5427 5.68664 34.2195 10.2326C34.5638 10.5704 35.0272 10.7597 35.5099 10.7597C35.9926 10.7597 36.456 10.5704 36.8003 10.2326C40.5771 6.37867 45.7189 4.15975 51.1183 4.0537H51.2416C53.3128 4.03677 55.3659 4.43885 57.2772 5.23566C59.1885 6.03248 60.9183 7.20753 62.3623 8.68993C65.7636 12.2403 67.6619 16.9637 67.6619 21.8765C67.6619 26.7893 65.7636 31.5128 62.3623 35.0631L35.9455 60.5009C35.8087 60.6357 35.6241 60.7113 35.4318 60.7113C35.2396 60.7113 35.055 60.6357 34.9181 60.5009L16.8357 43.0637C16.6803 42.9139 16.4968 42.7962 16.2958 42.7172C16.0948 42.6382 15.8802 42.5995 15.6642 42.6033C15.2279 42.611 14.8127 42.7914 14.5096 43.1047C14.2066 43.4181 14.0407 43.8389 14.0485 44.2744C14.0562 44.7099 14.2368 45.1245 14.5507 45.427L32.6332 62.8641C33.3821 63.5924 34.3863 64 35.4318 64C36.4774 64 37.4816 63.5924 38.2305 62.8641L64.7459 37.3854C68.7586 33.2211 71 27.6672 71 21.8888C71 16.1105 68.7586 10.5566 64.7459 6.39233C63.0013 4.59631 60.9105 3.17163 58.5995 2.20418C56.2884 1.23672 53.8051 0.746547 51.2992 0.763202C45.4519 0.791929 39.8231 2.98477 35.5017 6.9175C30.4962 2.31408 25.7783 6.94411e-05 21.4714 6.94411e-05C18.6355 -0.00720156 15.8272 0.556595 13.2145 1.65774C10.6019 2.75889 8.23848 4.37477 6.26571 6.40874C4.11156 8.63166 2.44558 11.2788 1.37423 14.1809C0.302882 17.0831 -0.150277 20.1764 0.0437098 23.2633Z" fill="white"/>
<path d="M8.38367 18.9161C8.66775 18.9115 8.94579 18.8335 9.19067 18.6897C9.43556 18.5459 9.63893 18.3412 9.78095 18.0955L12.4604 13.7547L16.1016 19.5479C16.2635 19.806 16.4942 20.014 16.7679 20.1486C17.0415 20.2833 17.3472 20.3392 17.6509 20.3103C17.9546 20.2813 18.2442 20.1686 18.4873 19.9847C18.7304 19.8008 18.9175 19.5529 19.0276 19.2689L23.8113 6.96034L28.225 24.4139C28.3063 24.7373 28.4843 25.0284 28.7354 25.2483C28.9865 25.4681 29.2987 25.6065 29.6305 25.6448H29.8196C30.1192 25.6447 30.4131 25.5628 30.6695 25.4081C30.9259 25.2534 31.1351 25.0316 31.2744 24.7668L36.7566 14.2799L38.8526 18.0135C38.9974 18.2639 39.2059 18.4717 39.4571 18.6158C39.7082 18.7599 39.993 18.8352 40.2827 18.834H47.9184C48.3544 18.834 48.7725 18.6611 49.0808 18.3533C49.3891 18.0456 49.5623 17.6281 49.5623 17.1929C49.5623 16.7576 49.3891 16.3402 49.0808 16.0324C48.7725 15.7246 48.3544 15.5517 47.9184 15.5517H41.2608L38.1457 10.0047C38.0009 9.75422 37.7923 9.54643 37.5412 9.40233C37.29 9.25823 37.0052 9.18295 36.7155 9.1841C36.4011 9.18332 36.0931 9.27258 35.8279 9.44129C35.5628 9.61 35.3517 9.85109 35.2196 10.136L30.2881 19.4987L25.7428 1.23275C25.6563 0.896474 25.4651 0.596263 25.1969 0.375292C24.9286 0.154321 24.5971 0.0239737 24.25 0.00299755C23.9028 -0.0179786 23.558 0.071498 23.265 0.258556C22.972 0.445615 22.746 0.720618 22.6195 1.04402L17.1372 15.0758L13.8495 9.81594C13.7022 9.5806 13.4975 9.38641 13.2546 9.25152C13.0116 9.11662 12.7384 9.04543 12.4604 9.0446C12.1764 9.04917 11.8983 9.12716 11.6534 9.27097C11.4085 9.41479 11.2052 9.61951 11.0632 9.86517L7.47133 15.6748H1.64386C1.20788 15.6748 0.789757 15.8477 0.481474 16.1555C0.173192 16.4633 -3.13541e-07 16.8807 -3.13541e-07 17.316C-3.13541e-07 17.7512 0.173192 18.1687 0.481474 18.4764C0.789757 18.7842 1.20788 18.9571 1.64386 18.9571L8.38367 18.9161Z" transform="translate(2.74805 17.5093)" fill="white"/>
</svg>
