<svg width="62" height="41" viewBox="0 0 62 41" version="1.1" xmlns="http://www.w3.org/2000/svg" xmlns:xlink="http://www.w3.org/1999/xlink">
<g id="Canvas" fill="none">
<g id="Logo small">
<g id="Canvas_2">
<g id="Logo small_2">
<g id="Group 3">
<g id="Group 2.2">
<g id="Crypto Ass ts Rank">
<g id="Vector">
<path d="M 4.92274 9.64706C 6.66734 9.64706 8.19552 8.78574 8.99349 7.46057L 7.38412 6.54622C 6.93782 7.35456 6.00466 7.85812 4.92274 7.85812C 3.06995 7.85812 1.85279 6.59922 1.85279 4.82353C 1.85279 3.03458 3.06995 1.77569 4.92274 1.77569C 6.00466 1.77569 6.9243 2.27925 7.38412 3.10084L 8.99349 2.18649C 8.18201 0.861346 6.65382 0 4.92274 0C 2.05565 0 -1.8799e-09 2.10698 -1.8799e-09 4.82353C -1.8799e-09 7.52683 2.05565 9.64706 4.92274 9.64706Z" transform="translate(0.40625 0)" fill="#333333"/>
</g>
<g id="Vector_2">
<path d="M 5.19317 9.27599L 7.20828 9.27599L 5.11206 5.77763C 6.19397 5.28733 6.93776 4.24046 6.93776 3.07433C 6.93776 1.37815 5.5313 -5.22799e-09 3.78671 -5.22799e-09L 5.27475e-08 -5.22799e-09L 5.27475e-08 9.27599L 1.8663 9.27599L 1.8663 6.05592L 3.28635 6.05592L 5.19317 9.27599ZM 1.8663 1.70944L 3.78671 1.70944C 4.48998 1.70944 5.07146 2.30575 5.07146 3.07433C 5.07146 3.84292 4.48998 4.45249 3.78671 4.45249L 1.8663 4.45249L 1.8663 1.70944Z" transform="translate(12.5742 0.185547)" fill="#333333"/>
</g>
<g id="Vector_3">
<path d="M 8.3308 -5.22799e-09L 6.22107 -5.22799e-09L 4.16536 3.86943L 2.10973 -5.22799e-09L -4.90675e-09 -5.22799e-09L 3.23225 5.65837L 3.23225 9.27599L 5.08504 9.27599L 5.08504 5.65837L 8.3308 -5.22799e-09Z" transform="translate(21.8047 0.185547)" fill="#333333"/>
</g>
<g id="Vector_4">
<path d="M 3.5297 -5.22799e-09L 8.19427e-07 -5.22799e-09L 8.19427e-07 9.27599L 1.8663 9.27599L 1.8663 6.22818L 3.5297 6.22818C 5.35548 6.22818 6.76194 4.85004 6.76194 3.1141C 6.76194 1.37815 5.35548 -5.22799e-09 3.5297 -5.22799e-09ZM 3.5297 4.51875L 1.8663 4.51875L 1.8663 1.70944L 3.5297 1.70944C 4.32767 1.70944 4.90915 2.30575 4.90915 3.1141C 4.90915 3.90918 4.32767 4.51875 3.5297 4.51875Z" transform="translate(33.0742 0.185547)" fill="#333333"/>
</g>
<g id="Vector_5">
<path d="M 6.96485 -5.22799e-09L 1.09911e-06 -5.22799e-09L 1.09911e-06 1.74919L 2.54248 1.74919L 2.54248 9.27599L 4.40879 9.27599L 4.40879 1.74919L 6.96485 1.74919L 6.96485 -5.22799e-09Z" transform="translate(42.207 0.185547)" fill="#333333"/>
</g>
<g id="Vector_6">
<path d="M 4.90923 9.64706C 7.64104 9.64706 9.83196 7.52683 9.83196 4.82353C 9.83196 2.10698 7.64104 0 4.90923 0C 2.17734 0 3.68006e-07 2.10698 3.68006e-07 4.82353C 3.68006e-07 7.52683 2.17734 9.64706 4.90923 9.64706ZM 4.90923 7.85812C 3.19165 7.85812 1.8528 6.59922 1.8528 4.82353C 1.8528 3.03458 3.19165 1.77569 4.90923 1.77569C 6.62681 1.77569 7.96565 3.03458 7.96565 4.82353C 7.96565 6.59922 6.62681 7.85812 4.90923 7.85812Z" transform="translate(51.2656 0)" fill="#333333"/>
</g>
<g id="Vector_7">
<path d="M 6.9243 9.27605L 8.95287 9.27605L 5.626 2.60058e-07L 3.31339 2.60058e-07L 0 9.27605L 2.01508 9.27605L 2.58309 7.60638L 6.35629 7.60638L 6.9243 9.27605ZM 3.17814 5.89693L 4.47645 2.107L 5.77475 5.89693L 3.17814 5.89693Z" transform="translate(0 16.2207)" fill="#333333"/>
</g>
<g id="Vector_8">
<path d="M 3.7191 9.64706C 5.73413 9.64706 7.15418 8.58693 7.15418 6.85094C 7.15418 4.95602 5.55831 4.4657 4.05715 4.00192C 2.6236 3.57785 2.25846 3.27309 2.25846 2.70327C 2.25846 2.17324 2.7183 1.77562 3.50269 1.77562C 4.46289 1.77562 4.97684 2.26593 5.31489 2.96832L 6.88366 2.08047C 6.24808 0.781814 5.05795 6.30517e-07 3.50269 6.30517e-07C 1.87981 6.30517e-07 0.392153 1.00707 0.392153 2.75624C 0.392153 4.51868 1.79869 5.11503 3.24575 5.52584C 4.65221 5.92338 5.28788 6.18843 5.28788 6.87747C 5.28788 7.39431 4.89564 7.85809 3.77321 7.85809C 2.59659 7.85809 1.93391 7.30154 1.59578 6.44013L 2.28164e-07 7.35451C 0.513867 8.73268 1.78511 9.64706 3.7191 9.64706Z" transform="translate(11.2031 16.0352)" fill="#333333"/>
</g>
<g id="Vector_9">
<path d="M 3.7191 9.64706C 5.73421 9.64706 7.15418 8.58693 7.15418 6.85094C 7.15418 4.95601 5.55839 4.4657 4.05723 4.00192C 2.62368 3.57785 2.25854 3.27308 2.25854 2.70327C 2.25854 2.17324 2.7183 1.77562 3.50277 1.77562C 4.46297 1.77562 4.97684 2.26593 5.31497 2.96832L 6.88374 2.08047C 6.24808 0.781814 5.05795 0 3.50277 0C 1.87981 0 0.392235 1.00707 0.392235 2.75624C 0.392235 4.51868 1.79869 5.11503 3.24575 5.52584C 4.65229 5.92337 5.28788 6.18843 5.28788 6.87747C 5.28788 7.39431 4.89572 7.85809 3.77321 7.85809C 2.59659 7.85809 1.93392 7.30154 1.59587 6.44013L 0 7.35451C 0.513947 8.73268 1.78519 9.64706 3.7191 9.64706Z" transform="translate(20.8281 16.0352)" fill="#333333"/>
</g>
<g id="Vector_10">
<path d="M 6.96485 2.60058e-07L -1.41805e-06 2.60058e-07L -1.41805e-06 1.74917L 2.54256 1.74917L 2.54256 9.27605L 4.40887 9.27605L 4.40887 1.74917L 6.96485 1.74917L 6.96485 2.60058e-07Z" transform="translate(43.2344 16.2207)" fill="#333333"/>
</g>
<g id="Vector_11">
<path d="M 3.71918 9.64706C 5.73421 9.64706 7.15426 8.58693 7.15426 6.85094C 7.15426 4.95602 5.55839 4.4657 4.05723 4.00192C 2.62368 3.57785 2.25854 3.27309 2.25854 2.70327C 2.25854 2.17324 2.71838 1.77562 3.50277 1.77562C 4.46297 1.77562 4.97692 2.26593 5.31496 2.96832L 6.88374 2.08047C 6.24816 0.781814 5.05803 6.30517e-07 3.50277 6.30517e-07C 1.87989 6.30517e-07 0.392233 1.00707 0.392233 2.75624C 0.392233 4.51868 1.79877 5.11503 3.24583 5.52584C 4.65229 5.92338 5.28795 6.18843 5.28795 6.87747C 5.28795 7.39431 4.89572 7.85809 3.7732 7.85809C 2.59666 7.85809 1.93399 7.30154 1.59586 6.44013L -2.74778e-07 7.35451C 0.513947 8.73268 1.78519 9.64706 3.71918 9.64706Z" transform="translate(52.5195 16.0352)" fill="#333333"/>
</g>
<g id="Vector_12">
<path d="M 5.97762 9.27605L 6.80258 9.27605L 4.4494 5.38008C 5.65304 5.06205 6.5321 4.002 6.5321 2.74306C 6.5321 1.23241 5.27436 -1.39842e-06 3.73262 -1.39842e-06L 3.37339e-09 -1.39842e-06L 3.37339e-09 9.27605L 0.716768 9.27605L 0.716768 5.47286L 3.70558 5.47286L 5.97762 9.27605ZM 0.716768 0.662594L 3.73262 0.662594C 4.88217 0.662594 5.81533 1.59024 5.81533 2.74306C 5.81533 3.8827 4.88217 4.81034 3.73262 4.81034L 0.716768 4.81034L 0.716768 0.662594Z" transform="translate(1.13672 31.7227)" fill="#333333"/>
</g>
<g id="Vector_13">
<path d="M 7.34358 9.27605L 8.10088 9.27605L 4.43588 -1.39842e-06L 3.67858 -1.39842e-06L 7.11478e-08 9.27605L 0.757374 9.27605L 1.67698 6.91726L 6.4239 6.91726L 7.34358 9.27605ZM 1.9475 6.25475L 4.05723 0.861403L 6.16696 6.25475L 1.9475 6.25475Z" transform="translate(10.4844 31.7227)" fill="#333333"/>
</g>
<g id="Vector_14">
<path d="M 6.22107 -1.39842e-06L 6.22107 7.9774L 0.622156 -1.39842e-06L -1.54563e-07 -1.39842e-06L -1.54563e-07 9.27605L 0.716776 9.27605L 0.716776 1.29866L 6.30226 9.27605L 6.93784 9.27605L 6.93784 -1.39842e-06L 6.22107 -1.39842e-06Z" transform="translate(21.9922 31.7227)" fill="#333333"/>
</g>
<g id="Vector_15">
<path d="M 6.4239 9.27605L 1.50116 4.5055L 6.28867 -1.39842e-06L 5.32847 -1.39842e-06L 0.716778 4.32003L 0.716778 -1.39842e-06L 2.94405e-08 -1.39842e-06L 2.94405e-08 9.27605L 0.716778 9.27605L 0.716778 4.70431L 5.46369 9.27605L 6.4239 9.27605Z" transform="translate(33.3047 31.7227)" fill="#333333"/>
</g>
</g>
</g>
</g>
<g id="Group">
<g id="Rectangle 3">
<g id="Vector_16">
<path d="M 5.30058 0L 0 0L 0 1.75812L 5.30058 1.75812L 5.30058 0Z" transform="matrix(0 -1 1 0 31.4688 25.4961)" fill="#3EC7C6"/>
</g>
</g>
<g id="Rectangle 3.1">
<g id="Vector_17">
<path d="M 0 0L 8.61346 0L 8.61346 1.75812L 0 1.75812L 0 0Z" transform="matrix(0 -1 1 0 34.7109 25.4961)" fill="#3EC7C6"/>
</g>
</g>
<g id="Rectangle 3.2">
<g id="Vector_18">
<path d="M 11.2637 0L 0 0L 0 1.75812L 11.2637 1.75812L 11.2637 0Z" transform="matrix(0 -1 1 0 38.0977 25.4961)" fill="#3EC7C6"/>
</g>
</g>
</g>
</g>
</g>
</g>
</g>
</svg>

