<svg width="269" height="18" viewBox="0 0 269 18" version="1.1" xmlns="http://www.w3.org/2000/svg" xmlns:xlink="http://www.w3.org/1999/xlink">
<g id="Canvas" fill="none">
<g id="Group 3">
<g id="Group 2">
<g id="Group 3_2">
<g id="Group 2.2">
<g id="Crypto Ass ts Rank">
<path d="M 7.53152 15.167C 10.2007 15.167 12.5387 13.8128 13.7595 11.7294L 11.2973 10.2919C 10.6145 11.5627 9.18679 12.3544 7.53152 12.3544C 4.69685 12.3544 2.83466 10.3752 2.83466 7.58347C 2.83466 4.77092 4.69685 2.79172 7.53152 2.79172C 9.18679 2.79172 10.5938 3.5834 11.2973 4.87509L 13.7595 3.43756C 12.518 1.35419 10.18 0 7.53152 0C 3.14503 0 0 3.31256 0 7.58347C 0 11.8336 3.14503 15.167 7.53152 15.167Z" transform="translate(0 2.83398)" fill="#333333"/>
<path d="M 26.5625 14.8753L 29.6455 14.8753L 26.4384 9.37517C 28.0937 8.60433 29.2317 6.95846 29.2317 5.1251C 29.2317 2.45838 27.0798 0.291672 24.4107 0.291672L 18.6172 0.291672L 18.6172 14.8753L 21.4725 14.8753L 21.4725 9.81268L 23.6451 9.81268L 26.5625 14.8753ZM 21.4725 2.97922L 24.4107 2.97922C 25.4866 2.97922 26.3763 3.91674 26.3763 5.1251C 26.3763 6.33345 25.4866 7.2918 24.4107 7.2918L 21.4725 7.2918L 21.4725 2.97922Z" transform="translate(0 2.83398)" fill="#333333"/>
<path d="M 45.4891 0.291672L 42.2613 0.291672L 39.1163 6.37512L 35.9713 0.291672L 32.7435 0.291672L 37.6886 9.18767L 37.6886 14.8753L 40.5233 14.8753L 40.5233 9.18767L 45.4891 0.291672Z" transform="translate(0 2.83398)" fill="#333333"/>
<path d="M 55.3813 0.291672L 49.981 0.291672L 49.981 14.8753L 52.8363 14.8753L 52.8363 10.0835L 55.3813 10.0835C 58.1746 10.0835 60.3265 7.91681 60.3265 5.1876C 60.3265 2.45838 58.1746 0.291672 55.3813 0.291672ZM 55.3813 7.39597L 52.8363 7.39597L 52.8363 2.97922L 55.3813 2.97922C 56.6021 2.97922 57.4918 3.91674 57.4918 5.1876C 57.4918 6.43762 56.6021 7.39597 55.3813 7.39597Z" transform="translate(0 2.83398)" fill="#333333"/>
<path d="M 74.6063 0.291672L 63.9505 0.291672L 63.9505 3.04172L 67.8404 3.04172L 67.8404 14.8753L 70.6957 14.8753L 70.6957 3.04172L 74.6063 3.04172L 74.6063 0.291672Z" transform="translate(0 2.83398)" fill="#333333"/>
<path d="M 85.3243 15.167C 89.5038 15.167 92.8558 11.8336 92.8558 7.58347C 92.8558 3.31256 89.5038 0 85.3243 0C 81.1447 0 77.8134 3.31256 77.8134 7.58347C 77.8134 11.8336 81.1447 15.167 85.3243 15.167ZM 85.3243 12.3544C 82.6965 12.3544 80.6481 10.3752 80.6481 7.58347C 80.6481 4.77092 82.6965 2.79172 85.3243 2.79172C 87.952 2.79172 90.0004 4.77092 90.0004 7.58347C 90.0004 10.3752 87.952 12.3544 85.3243 12.3544Z" transform="translate(0 2.83398)" fill="#333333"/>
<path d="M 115.554 14.8753L 118.657 14.8753L 113.567 0.291672L 110.029 0.291672L 104.96 14.8753L 108.043 14.8753L 108.912 12.2502L 114.685 12.2502L 115.554 14.8753ZM 109.822 9.56268L 111.809 3.60423L 113.795 9.56268L 109.822 9.56268Z" transform="translate(0 2.83398)" fill="#333333"/>
<path d="M 127.789 15.167C 130.872 15.167 133.045 13.5003 133.045 10.771C 133.045 7.79181 130.603 7.02096 128.306 6.29178C 126.113 5.6251 125.554 5.14593 125.554 4.25008C 125.554 3.41673 126.258 2.79172 127.458 2.79172C 128.927 2.79172 129.713 3.56257 130.231 4.66675L 132.631 3.27089C 131.658 1.22919 129.838 0 127.458 0C 124.975 0 122.699 1.58336 122.699 4.33341C 122.699 7.1043 124.851 8.04182 127.065 8.68766C 129.217 9.31267 130.189 9.72935 130.189 10.8127C 130.189 11.6252 129.589 12.3544 127.872 12.3544C 126.072 12.3544 125.058 11.4794 124.541 10.1252L 122.099 11.5627C 122.885 13.7294 124.83 15.167 127.789 15.167Z" transform="translate(0 2.83398)" fill="#333333"/>
<path d="M 142.511 15.167C 145.594 15.167 147.767 13.5003 147.767 10.771C 147.767 7.79181 145.325 7.02096 143.029 6.29178C 140.835 5.6251 140.277 5.14593 140.277 4.25008C 140.277 3.41673 140.98 2.79172 142.18 2.79172C 143.649 2.79172 144.435 3.56257 144.953 4.66675L 147.353 3.27089C 146.38 1.22919 144.56 0 142.18 0C 139.697 0 137.421 1.58336 137.421 4.33341C 137.421 7.1043 139.573 8.04182 141.787 8.68766C 143.939 9.31267 144.911 9.72935 144.911 10.8127C 144.911 11.6252 144.311 12.3544 142.594 12.3544C 140.794 12.3544 139.78 11.4794 139.263 10.1252L 136.821 11.5627C 137.607 13.7294 139.552 15.167 142.511 15.167Z" transform="translate(0 2.83398)" fill="#333333"/>
<path d="M 181.762 0.291672L 171.106 0.291672L 171.106 3.04172L 174.996 3.04172L 174.996 14.8753L 177.852 14.8753L 177.852 3.04172L 181.762 3.04172L 181.762 0.291672Z" transform="translate(0 2.83398)" fill="#333333"/>
<path d="M 191.001 15.167C 194.084 15.167 196.256 13.5003 196.256 10.771C 196.256 7.79181 193.815 7.02096 191.518 6.29178C 189.325 5.6251 188.766 5.14593 188.766 4.25008C 188.766 3.41673 189.47 2.79172 190.67 2.79172C 192.139 2.79172 192.925 3.56257 193.442 4.66675L 195.843 3.27089C 194.87 1.22919 193.049 0 190.67 0C 188.187 0 185.911 1.58336 185.911 4.33341C 185.911 7.1043 188.063 8.04182 190.277 8.68766C 192.429 9.31267 193.401 9.72935 193.401 10.8127C 193.401 11.6252 192.801 12.3544 191.084 12.3544C 189.284 12.3544 188.27 11.4794 187.752 10.1252L 185.311 11.5627C 186.097 13.7294 188.042 15.167 191.001 15.167Z" transform="translate(0 2.83398)" fill="#333333"/>
<path d="M 219.099 14.8753L 220.361 14.8753L 216.761 8.75016C 218.603 8.25015 219.948 6.58346 219.948 4.60425C 219.948 2.22921 218.023 0.291672 215.665 0.291672L 209.954 0.291672L 209.954 14.8753L 211.051 14.8753L 211.051 8.896L 215.623 8.896L 219.099 14.8753ZM 211.051 1.33336L 215.665 1.33336C 217.423 1.33336 218.851 2.79172 218.851 4.60425C 218.851 6.39595 217.423 7.85431 215.665 7.85431L 211.051 7.85431L 211.051 1.33336Z" transform="translate(0 2.83398)" fill="#333333"/>
<path d="M 235.492 14.8753L 236.651 14.8753L 231.044 0.291672L 229.885 0.291672L 224.257 14.8753L 225.416 14.8753L 226.823 11.1669L 234.085 11.1669L 235.492 14.8753ZM 227.237 10.1252L 230.465 1.64586L 233.692 10.1252L 227.237 10.1252Z" transform="translate(0 2.83398)" fill="#333333"/>
<path d="M 251.381 0.291672L 251.381 12.8336L 242.815 0.291672L 241.863 0.291672L 241.863 14.8753L 242.96 14.8753L 242.96 2.33338L 251.505 14.8753L 252.478 14.8753L 252.478 0.291672L 251.381 0.291672Z" transform="translate(0 2.83398)" fill="#333333"/>
<path d="M 269 14.8753L 261.469 7.37514L 268.793 0.291672L 267.324 0.291672L 260.268 7.08347L 260.268 0.291672L 259.172 0.291672L 259.172 14.8753L 260.268 14.8753L 260.268 7.68764L 267.531 14.8753L 269 14.8753Z" transform="translate(0 2.83398)" fill="#333333"/>
</g>
</g>
</g>
<g id="Group">
<g id="Rectangle 3">
<rect width="8.33349" height="2.68983" transform="matrix(0 -1 1 0 153.258 17.709)" fill="#3EC7C6"/>
</g>
<g id="Rectangle 3.1">
<path d="M 0 0L 13.5419 0L 13.5419 2.68983L 0 2.68983L 0 0Z" transform="matrix(0 -1 1 0 158.223 17.709)" fill="#3EC7C6"/>
</g>
<g id="Rectangle 3.2">
<rect width="17.7087" height="2.68983" transform="matrix(0 -1 1 0 163.398 17.709)" fill="#3EC7C6"/>
</g>
</g>
</g>
</g>
</g>
</svg>

