<svg width="56" height="72" viewBox="0 0 56 72" fill="none" xmlns="http://www.w3.org/2000/svg">
<path d="M27.7015 4.09514C27.7256 4.06983 27.7498 4.04466 27.7734 4.01948C29.2263 2.48892 28.1126 0 25.978 0H2.45283C0.31823 0 -0.795452 2.48892 0.657102 4.01948C0.680938 4.04452 0.704916 4.06983 0.729039 4.09514C2.91333 6.38213 11.135 13.1766 11.2408 13.2654C12.9527 14.7033 15.478 14.7033 17.1897 13.2654C17.2957 13.1764 25.5172 6.38213 27.7015 4.09514Z" transform="translate(13.7842 11.6719)" fill="#3EC7C6"/>
<path d="M39.2182 33.877C39.9027 33.2938 40.6857 32.6493 41.5145 31.9669C47.6277 26.9342 56 20.0417 56 12.7969V8.4375C56 3.78506 52.1351 0 47.3846 0H8.61539C3.86486 0 0 3.78506 0 8.4375V12.7969C0 20.0417 8.37229 26.9342 14.4855 31.9669C15.3143 32.6493 16.0971 33.2938 16.7816 33.8768C17.4321 34.4312 17.8051 35.2049 17.8051 36C17.8051 36.7951 17.4321 37.569 16.7818 38.123C16.0973 38.7062 15.3143 39.3507 14.4855 40.0331C8.37229 45.0658 0 51.9583 0 59.2031V63.5625C0 68.2149 3.86486 72 8.61539 72H47.3846C52.1351 72 56 68.2149 56 63.5625C56 62.0092 54.7143 60.75 53.1282 60.75C51.5421 60.75 50.2564 62.0092 50.2564 63.5625C50.2564 65.1133 48.9681 66.375 47.3846 66.375H8.61539C7.03188 66.375 5.74359 65.1133 5.74359 63.5625V59.2031C5.74359 54.5783 13.5295 48.1686 18.1813 44.3388C19.0292 43.6407 19.8305 42.9812 20.5516 42.3667C22.4564 40.7438 23.5487 38.4232 23.5487 36C23.5487 33.5769 22.4564 31.2564 20.5516 29.6332C19.8303 29.0187 19.0292 28.3593 18.1813 27.6611C13.5295 23.8314 5.74359 17.4217 5.74359 12.7969V8.4375C5.74359 6.88669 7.03188 5.625 8.61539 5.625H47.3846C48.9681 5.625 50.2564 6.88669 50.2564 8.4375V12.7969C50.2564 17.4217 42.4705 23.8314 37.8187 27.6612C36.9708 28.3593 36.1695 29.0188 35.4483 29.6335C33.5436 31.2564 32.4513 33.577 32.4513 36.0001C32.4513 38.4234 33.5436 40.7438 35.4484 42.3667C36.2001 43.0071 37.0377 43.6937 37.9246 44.4206C40.7183 46.7108 43.8849 49.3066 46.3842 52.0685C47.4362 53.2309 49.251 53.3378 50.4382 52.3079C51.6251 51.2775 51.7345 49.5001 50.6826 48.3376C47.8994 45.2623 44.4127 42.4041 41.611 40.1074C40.7459 39.3982 39.9286 38.7283 39.2182 38.123C38.5679 37.5688 38.1949 36.7951 38.1949 36.0001C38.1949 35.2049 38.5679 34.431 39.2182 33.877Z" fill="#3EC7C6"/>
<path d="M39.2182 33.877C39.9027 33.2938 40.6857 32.6493 41.5145 31.9669C47.6277 26.9342 56 20.0417 56 12.7969V8.4375C56 3.78506 52.1351 0 47.3846 0H8.61539C3.86486 0 0 3.78506 0 8.4375V12.7969C0 20.0417 8.37229 26.9342 14.4855 31.9669C15.3143 32.6493 16.0971 33.2938 16.7816 33.8768C17.4321 34.4312 17.8051 35.2049 17.8051 36C17.8051 36.7951 17.4321 37.569 16.7818 38.123C16.0973 38.7062 15.3143 39.3507 14.4855 40.0331C8.37229 45.0658 0 51.9583 0 59.2031V63.5625C0 68.2149 3.86486 72 8.61539 72H47.3846C52.1351 72 56 68.2149 56 63.5625C56 62.0092 54.7143 60.75 53.1282 60.75C51.5421 60.75 50.2564 62.0092 50.2564 63.5625C50.2564 65.1133 48.9681 66.375 47.3846 66.375H8.61539C7.03188 66.375 5.74359 65.1133 5.74359 63.5625V59.2031C5.74359 54.5783 13.5295 48.1686 18.1813 44.3388C19.0292 43.6407 19.8305 42.9812 20.5516 42.3667C22.4564 40.7438 23.5487 38.4232 23.5487 36C23.5487 33.5769 22.4564 31.2564 20.5516 29.6332C19.8303 29.0187 19.0292 28.3593 18.1813 27.6611C13.5295 23.8314 5.74359 17.4217 5.74359 12.7969V8.4375C5.74359 6.88669 7.03188 5.625 8.61539 5.625H47.3846C48.9681 5.625 50.2564 6.88669 50.2564 8.4375V12.7969C50.2564 17.4217 42.4705 23.8314 37.8187 27.6612C36.9708 28.3593 36.1695 29.0188 35.4483 29.6335C33.5436 31.2564 32.4513 33.577 32.4513 36.0001C32.4513 38.4234 33.5436 40.7438 35.4484 42.3667C36.2001 43.0071 37.0377 43.6937 37.9246 44.4206C40.7183 46.7108 43.8849 49.3066 46.3842 52.0685C47.4362 53.2309 49.251 53.3378 50.4382 52.3079C51.6251 51.2775 51.7345 49.5001 50.6826 48.3376C47.8994 45.2623 44.4127 42.4041 41.611 40.1074C40.7459 39.3982 39.9286 38.7283 39.2182 38.123C38.5679 37.5688 38.1949 36.7951 38.1949 36.0001C38.1949 35.2049 38.5679 34.431 39.2182 33.877Z" transform="translate(56) scale(-1 1)" fill="#3EC7C6"/>
</svg>
