<svg width="55" height="72" viewBox="0 0 55 72" fill="none" xmlns="http://www.w3.org/2000/svg">
<path d="M0.714176 10.2487C0.690551 10.274 0.666928 10.2992 0.643724 10.3244C-0.779119 11.8549 0.311568 14.3439 2.4021 14.3439H25.4415C27.5321 14.3439 28.6228 11.8549 27.2002 10.3244C27.1768 10.2993 27.1534 10.274 27.1297 10.2487C24.9906 7.96173 16.9386 1.16743 16.835 1.07842C15.1585 -0.359473 12.6853 -0.359473 11.0089 1.07842C10.9053 1.16729 2.85336 7.96173 0.714176 10.2487Z" transform="translate(13.5 45.9844)" fill="#3EC7C6"/>
<path d="M38.4085 33.877C39.0788 33.2938 39.8454 32.6495 40.6571 31.9672C46.6442 26.9343 54.8437 20.0417 54.8437 12.7969V8.4375C54.8437 3.78506 51.0587 0 46.4062 0H8.4375C3.78506 0 0 3.78506 0 8.4375V12.7969C0 20.0417 8.19956 26.9343 14.1867 31.9673C14.9984 32.6496 15.7649 33.294 16.4353 33.8771C17.0722 34.4313 17.4375 35.205 17.4375 36.0001C17.4375 36.7951 17.0723 37.5688 16.4353 38.123C15.7649 38.7062 14.9984 39.3505 14.1867 40.0328C8.19956 45.0657 0 51.9583 0 59.2031V63.5625C0 68.2149 3.78506 72 8.4375 72H46.4062C51.0587 72 54.8437 68.2149 54.8437 63.5625C54.8437 62.0092 53.5846 60.75 52.0312 60.75C50.4779 60.75 49.2187 62.0092 49.2187 63.5625C49.2187 65.1133 47.9571 66.375 46.4062 66.375H8.4375C6.88669 66.375 5.625 65.1133 5.625 63.5625V59.2031C5.625 54.5783 13.2502 48.1684 17.8061 44.3385C18.6365 43.6406 19.4209 42.9812 20.1272 42.3667C21.9926 40.7437 23.0625 38.4231 23.0625 36C23.0625 33.5768 21.9926 31.2562 20.1274 29.6332C19.421 29.0188 18.6366 28.3594 17.8062 27.6614C13.2502 23.8316 5.625 17.4217 5.625 12.7969V8.4375C5.625 6.88669 6.88669 5.625 8.4375 5.625H46.4062C47.9571 5.625 49.2187 6.88669 49.2187 8.4375V12.7969C49.2187 17.4217 41.5935 23.8316 37.0377 27.6614C36.2073 28.3593 35.4229 29.0187 34.7165 29.6332C32.8511 31.2562 31.7812 33.5768 31.7812 36C31.7812 38.4232 32.8511 40.7438 34.7164 42.3667C35.4525 43.0069 36.2727 43.6935 37.141 44.4203C39.8773 46.7107 42.9785 49.3066 45.4264 52.0685C46.4566 53.2309 48.2341 53.3381 49.3966 52.3079C50.559 51.2776 50.6662 49.5001 49.636 48.3376C46.9102 45.2621 43.4953 42.4038 40.7514 40.107C39.9043 39.3978 39.104 38.728 38.4085 38.1229C37.7716 37.5687 37.4062 36.795 37.4062 36C37.4062 35.205 37.7716 34.4312 38.4085 33.877Z" fill="#3EC7C6"/>
<path d="M10.9139 8.1893C10.9647 8.145 12.928 6.45863 15.1635 4.48073C16.9155 2.93063 15.8369 0 13.5142 0H2.51707C0.194363 0 -0.88423 2.93063 0.867816 4.48073C3.10333 6.45877 5.0666 8.145 5.11736 8.1893C6.78532 9.64519 9.24583 9.64519 10.9139 8.1893Z" transform="translate(19.5469 17.8594)" fill="#3EC7C6"/>
<path d="M38.4085 33.877C39.0788 33.2938 39.8454 32.6495 40.6571 31.9672C46.6442 26.9343 54.8437 20.0417 54.8437 12.7969V8.4375C54.8437 3.78506 51.0587 0 46.4062 0H8.4375C3.78506 0 0 3.78506 0 8.4375V12.7969C0 20.0417 8.19956 26.9343 14.1867 31.9673C14.9984 32.6496 15.7649 33.294 16.4353 33.8771C17.0722 34.4313 17.4375 35.205 17.4375 36.0001C17.4375 36.7951 17.0723 37.5688 16.4353 38.123C15.7649 38.7062 14.9984 39.3505 14.1867 40.0328C8.19956 45.0657 0 51.9583 0 59.2031V63.5625C0 68.2149 3.78506 72 8.4375 72H46.4062C51.0587 72 54.8437 68.2149 54.8437 63.5625C54.8437 62.0092 53.5846 60.75 52.0312 60.75C50.4779 60.75 49.2187 62.0092 49.2187 63.5625C49.2187 65.1133 47.9571 66.375 46.4062 66.375H8.4375C6.88669 66.375 5.625 65.1133 5.625 63.5625V59.2031C5.625 54.5783 13.2502 48.1684 17.8061 44.3385C18.6365 43.6406 19.4209 42.9812 20.1272 42.3667C21.9926 40.7437 23.0625 38.4231 23.0625 36C23.0625 33.5768 21.9926 31.2562 20.1274 29.6332C19.421 29.0188 18.6366 28.3594 17.8062 27.6614C13.2502 23.8316 5.625 17.4217 5.625 12.7969V8.4375C5.625 6.88669 6.88669 5.625 8.4375 5.625H46.4062C47.9571 5.625 49.2187 6.88669 49.2187 8.4375V12.7969C49.2187 17.4217 41.5935 23.8316 37.0377 27.6614C36.2073 28.3593 35.4229 29.0187 34.7165 29.6332C32.8511 31.2562 31.7812 33.5768 31.7812 36C31.7812 38.4232 32.8511 40.7438 34.7164 42.3667C35.4525 43.0069 36.2727 43.6935 37.141 44.4203C39.8773 46.7107 42.9785 49.3066 45.4264 52.0685C46.4566 53.2309 48.2341 53.3381 49.3966 52.3079C50.559 51.2776 50.6662 49.5001 49.636 48.3376C46.9102 45.2621 43.4953 42.4038 40.7514 40.107C39.9043 39.3978 39.104 38.728 38.4085 38.1229C37.7716 37.5687 37.4062 36.795 37.4062 36C37.4062 35.205 37.7716 34.4312 38.4085 33.877Z" transform="translate(54.8438 72) rotate(-180)" fill="#3EC7C6"/>
</svg>
