<svg width="56" height="72" viewBox="0 0 56 72" fill="none" xmlns="http://www.w3.org/2000/svg">
<path d="M39.2182 33.877C39.9026 33.2938 40.6856 32.6495 41.5142 31.9672C47.6274 26.9343 56 20.0417 56 12.7969V8.4375C56 3.78506 52.1351 0 47.3846 0H8.61539C3.86486 0 0 3.78506 0 8.4375V12.7969C0 20.0417 8.37257 26.9343 14.4858 31.9672C15.3144 32.6495 16.0973 33.2938 16.7816 33.877C17.4321 34.4312 17.8051 35.2049 17.8051 36C17.8051 36.795 17.4321 37.5688 16.7818 38.123C16.0974 38.7062 15.3144 39.3505 14.4858 40.0328C8.37257 45.0657 0 51.9583 0 59.2031V63.5625C0 68.2149 3.86486 72 8.61539 72H47.3846C52.1351 72 56 68.2149 56 63.5625C56 62.0092 54.7143 60.75 53.1282 60.75C51.5421 60.75 50.2564 62.0092 50.2564 63.5625C50.2564 65.1133 48.9681 66.375 47.3846 66.375H8.61539C7.03188 66.375 5.74359 65.1133 5.74359 63.5625V59.2031C5.74359 54.5783 13.5296 48.1684 18.1816 44.3385C19.0294 43.6406 19.8305 42.9812 20.5517 42.3667C22.4564 40.7437 23.5487 38.4231 23.5487 36C23.5487 33.5768 22.4564 31.2562 20.5516 29.6332C19.8303 29.0188 19.0294 28.3594 18.1816 27.6614C13.5296 23.8316 5.74359 17.4217 5.74359 12.7969V8.4375C5.74359 6.88669 7.03188 5.625 8.61539 5.625H47.3846C48.9681 5.625 50.2564 6.88669 50.2564 8.4375V12.7969C50.2564 17.4217 42.4704 23.8316 37.8184 27.6614C36.9706 28.3593 36.1695 29.0187 35.4483 29.6332C33.5436 31.2562 32.4513 33.5768 32.4513 36C32.4513 38.4232 33.5436 40.7438 35.4484 42.3667C36.2001 43.0071 37.0377 43.6937 37.9246 44.4208C40.7183 46.7108 43.8849 49.3068 46.3842 52.0685C47.4362 53.2308 49.251 53.3382 50.4382 52.3079C51.6251 51.2776 51.7345 49.5 50.6826 48.3376C47.8994 45.2623 44.4127 42.4041 41.611 40.1074C40.7459 39.3981 39.9286 38.7281 39.2184 38.1229C38.5679 37.5687 38.1949 36.795 38.1949 36C38.1949 35.205 38.5679 34.4312 39.2182 33.877Z" fill="#3EC7C6"/>
<path d="M17.1899 1.07842C15.4781 -0.359473 12.9527 -0.359473 11.241 1.07842C11.1352 1.16729 2.91352 7.96173 0.729233 10.2487C0.70511 10.274 0.680988 10.2992 0.657296 10.3244C-0.795545 11.8549 0.318137 14.3439 2.45274 14.3439H25.9779C28.1125 14.3439 29.2262 11.8549 27.7736 10.3244C27.7498 10.2993 27.7258 10.274 27.7017 10.2487C25.5174 7.96173 17.2958 1.16743 17.1899 1.07842Z" transform="translate(13.7842 45.9844)" fill="#3EC7C6"/>
<path d="M39.2182 33.877C39.9026 33.2938 40.6856 32.6495 41.5142 31.9672C47.6274 26.9343 56 20.0417 56 12.7969V8.4375C56 3.78506 52.1351 0 47.3846 0H8.61539C3.86486 0 0 3.78506 0 8.4375V12.7969C0 20.0417 8.37257 26.9343 14.4858 31.9672C15.3144 32.6495 16.0973 33.2938 16.7816 33.877C17.4321 34.4312 17.8051 35.2049 17.8051 36C17.8051 36.795 17.4321 37.5688 16.7818 38.123C16.0974 38.7062 15.3144 39.3505 14.4858 40.0328C8.37257 45.0657 0 51.9583 0 59.2031V63.5625C0 68.2149 3.86486 72 8.61539 72H47.3846C52.1351 72 56 68.2149 56 63.5625C56 62.0092 54.7143 60.75 53.1282 60.75C51.5421 60.75 50.2564 62.0092 50.2564 63.5625C50.2564 65.1133 48.9681 66.375 47.3846 66.375H8.61539C7.03188 66.375 5.74359 65.1133 5.74359 63.5625V59.2031C5.74359 54.5783 13.5296 48.1684 18.1816 44.3385C19.0294 43.6406 19.8305 42.9812 20.5517 42.3667C22.4564 40.7437 23.5487 38.4231 23.5487 36C23.5487 33.5768 22.4564 31.2562 20.5516 29.6332C19.8303 29.0188 19.0294 28.3594 18.1816 27.6614C13.5296 23.8316 5.74359 17.4217 5.74359 12.7969V8.4375C5.74359 6.88669 7.03188 5.625 8.61539 5.625H47.3846C48.9681 5.625 50.2564 6.88669 50.2564 8.4375V12.7969C50.2564 17.4217 42.4704 23.8316 37.8184 27.6614C36.9706 28.3593 36.1695 29.0187 35.4483 29.6332C33.5436 31.2562 32.4513 33.5768 32.4513 36C32.4513 38.4232 33.5436 40.7438 35.4484 42.3667C36.2001 43.0071 37.0377 43.6937 37.9246 44.4208C40.7183 46.7108 43.8849 49.3068 46.3842 52.0685C47.4362 53.2308 49.251 53.3382 50.4382 52.3079C51.6251 51.2776 51.7345 49.5 50.6826 48.3376C47.8994 45.2623 44.4127 42.4041 41.611 40.1074C40.7459 39.3981 39.9286 38.7281 39.2184 38.1229C38.5679 37.5687 38.1949 36.795 38.1949 36C38.1949 35.205 38.5679 34.4312 39.2182 33.877Z" transform="translate(56 72) rotate(-180)" fill="#3EC7C6"/>
</svg>
