<svg width="56" height="72" viewBox="0 0 56 72" fill="none" xmlns="http://www.w3.org/2000/svg">
<path d="M39.2182 33.877C39.9026 33.2938 40.6856 32.6495 41.5142 31.9672C47.6274 26.9343 56 20.0417 56 12.7969V8.4375C56 3.78506 52.1351 0 47.3846 0H8.61539C3.86486 0 0 3.78506 0 8.4375V12.7969C0 20.0417 8.37257 26.9343 14.4858 31.9672C15.3144 32.6495 16.0973 33.2938 16.7816 33.877C17.4321 34.4312 17.8051 35.2049 17.8051 36C17.8051 36.795 17.4321 37.5688 16.7818 38.123C16.0974 38.7062 15.3144 39.3505 14.4858 40.0328C8.37257 45.0657 0 51.9583 0 59.2031V63.5625C0 68.2149 3.86486 72 8.61539 72H47.3846C52.1351 72 56 68.2149 56 63.5625C56 62.0092 54.7143 60.75 53.1282 60.75C51.5421 60.75 50.2564 62.0092 50.2564 63.5625C50.2564 65.1133 48.9681 66.375 47.3846 66.375H8.61539C7.03188 66.375 5.74359 65.1133 5.74359 63.5625V59.2031C5.74359 54.5783 13.5296 48.1684 18.1816 44.3385C19.0294 43.6406 19.8305 42.9812 20.5517 42.3667C22.4564 40.7437 23.5487 38.4231 23.5487 36C23.5487 33.5768 22.4564 31.2562 20.5516 29.6332C19.8303 29.0188 19.0294 28.3594 18.1816 27.6614C13.5296 23.8316 5.74359 17.4217 5.74359 12.7969V8.4375C5.74359 6.88669 7.03188 5.625 8.61539 5.625H47.3846C48.9681 5.625 50.2564 6.88669 50.2564 8.4375V12.7969C50.2564 17.4217 42.4704 23.8316 37.8184 27.6614C36.9706 28.3593 36.1695 29.0187 35.4483 29.6332C33.5436 31.2562 32.4513 33.5768 32.4513 36C32.4513 38.4232 33.5436 40.7438 35.4484 42.3667C36.2001 43.0071 37.0377 43.6937 37.9246 44.4208C40.7183 46.7108 43.8849 49.3068 46.3842 52.0685C47.4362 53.2308 49.251 53.3382 50.4382 52.3079C51.6251 51.2776 51.7345 49.5 50.6826 48.3376C47.8994 45.2623 44.4127 42.4041 41.611 40.1074C40.7459 39.3981 39.9286 38.7281 39.2184 38.1229C38.5679 37.5687 38.1949 36.795 38.1949 36C38.1949 35.205 38.5679 34.4312 39.2182 33.877Z" fill="#3EC7C6"/>
<path d="M30.9746 47.0628C29.2627 45.6249 26.7374 45.6249 25.0257 47.0628C24.9199 47.1517 16.6982 53.9461 14.5139 56.2331C14.4898 56.2584 14.4657 56.2836 14.442 56.3087C12.9891 57.8393 14.1028 60.3282 16.2374 60.3282H39.7626C41.8972 60.3282 43.0109 57.8393 41.5583 56.3087C41.5345 56.2837 41.5105 56.2584 41.4864 56.2331C39.3021 53.9461 31.0804 47.1518 30.9746 47.0628Z" fill="#3EC7C6"/>
<path d="M16.7818 38.123C16.0974 38.7062 15.3144 39.3505 14.4858 40.0328C8.37257 45.0657 0 51.9583 0 59.2031V63.5625C0 68.2149 3.86486 72 8.61539 72H47.3846C52.1351 72 56 68.2149 56 63.5625V59.2031C56 51.9583 47.6274 45.0657 41.5142 40.0328C40.6856 39.3505 39.9027 38.706 39.2184 38.1229C38.5679 37.5687 38.1949 36.795 38.1949 36C38.1949 35.205 38.5679 34.4312 39.2182 33.877C39.9026 33.2938 40.6856 32.6495 41.5142 31.9672C47.6274 26.9343 56 20.0417 56 12.7969V8.4375C56 3.78506 52.1351 0 47.3846 0H8.61539C3.86486 0 0 3.78506 0 8.4375C0 9.99084 1.2857 11.25 2.87179 11.25C4.45789 11.25 5.74359 9.99084 5.74359 8.4375C5.74359 6.88669 7.03188 5.625 8.61539 5.625H47.3846C48.9681 5.625 50.2564 6.88669 50.2564 8.4375V12.7969C50.2564 17.4217 42.4704 23.8316 37.8184 27.6614C36.9706 28.3593 36.1695 29.0187 35.4483 29.6332C33.5436 31.2562 32.4513 33.5768 32.4513 36C32.4513 38.4232 33.5436 40.7438 35.4484 42.3667C36.1697 42.981 36.9706 43.6406 37.8184 44.3386C42.4704 48.1684 50.2564 54.5783 50.2564 59.2031V63.5625C50.2564 65.1133 48.9681 66.375 47.3846 66.375H8.61539C7.03188 66.375 5.74359 65.1133 5.74359 63.5625V59.2031C5.74359 54.5783 13.5296 48.1684 18.1816 44.3385C19.0294 43.6406 19.8305 42.9812 20.5517 42.3667C22.4564 40.7437 23.5487 38.4231 23.5487 36C23.5487 33.5768 22.4564 31.2562 20.5516 29.6332C19.7999 28.9928 18.9623 28.3063 18.0754 27.5792C15.2817 25.2892 12.1151 22.6932 9.61578 19.9315C8.56384 18.7692 6.74901 18.6618 5.56181 19.6921C4.37489 20.7224 4.26548 22.5 5.31742 23.6624C8.10062 26.7377 11.5873 29.5959 14.389 31.8926C15.2541 32.6019 16.0714 33.2717 16.7816 33.877C17.4321 34.4312 17.8051 35.2049 17.8051 36C17.8051 36.795 17.4321 37.5688 16.7818 38.123Z" fill="#3EC7C6"/>
<path d="M25.2396 24.5153C26.9515 25.9532 29.4768 25.9532 31.1885 24.5153C31.2943 24.4265 39.516 17.632 41.7003 15.345C41.7244 15.3197 41.7485 15.2946 41.7722 15.2694C43.2251 13.7388 42.1114 11.2499 39.9768 11.2499H16.4516C14.317 11.2499 13.2033 13.7388 14.6559 15.2694C14.6797 15.2944 14.7037 15.3197 14.7278 15.345C16.9121 17.632 25.1338 24.4263 25.2396 24.5153Z" fill="#3EC7C6"/>
</svg>
