<svg width="25" height="21" viewBox="0 0 25 21" fill="none" xmlns="http://www.w3.org/2000/svg">
<rect width="24" height="21" fill="white" fill-opacity="0.6" transform="translate(0.0615234)"/>
<path d="M24 2.48463C23.1167 2.90626 22.1689 3.19221 21.173 3.31987C22.1898 2.66395 22.9682 1.62358 23.3371 0.38771C22.3833 0.995128 21.3305 1.43619 20.2087 1.67529C19.3103 0.642987 18.0326 7.99283e-08 16.6153 7.99283e-08C13.8963 7.99283e-08 11.6917 2.3748 11.6917 5.3021C11.6917 5.71726 11.7352 6.12276 11.8192 6.51051C7.72801 6.28916 4.1002 4.1777 1.67216 0.969275C1.24773 1.7512 1.00628 2.66231 1.00628 3.63488C1.00628 5.47496 1.87612 7.09854 3.19589 8.04843C2.38902 8.01936 1.63016 7.78026 0.965805 7.38284V7.44908C0.965805 10.0177 2.66349 12.1615 4.91456 12.6494C4.50212 12.769 4.06722 12.8352 3.6173 12.8352C3.29938 12.8352 2.99193 12.8013 2.69047 12.7366C3.31734 14.8449 5.13503 16.378 7.28864 16.42C5.60444 17.8417 3.48083 18.6866 1.17428 18.6866C0.776864 18.6866 0.385412 18.6607 0 18.6139C2.1791 20.1212 4.76612 21 7.5466 21C16.6034 21 21.554 12.9192 21.554 5.91116L21.5375 5.22458C22.5048 4.48139 23.3416 3.54764 24 2.48463Z" transform="translate(0.0615234)" fill="#BDBDBD"/>
</svg>
