<svg width="35" height="20" viewBox="0 0 35 20" fill="none" xmlns="http://www.w3.org/2000/svg">
<rect width="34" height="19" fill="white" fill-opacity="0.6" transform="translate(0.180664 0.916748)"/>
<path d="M33.8197 17.1591C33.7785 17.0722 33.7401 17.0001 33.7045 16.9423C33.1146 15.9017 31.9873 14.6245 30.3233 13.1102L30.2882 13.0755L30.2706 13.0585L30.2528 13.0411H30.2349C29.4797 12.336 29.0015 11.8618 28.8012 11.6191C28.4348 11.1567 28.3527 10.6887 28.5529 10.2144C28.6944 9.85612 29.2259 9.09943 30.1462 7.94333C30.6302 7.33063 31.0136 6.83957 31.2967 6.46961C33.3385 3.81087 34.2238 2.1119 33.9522 1.37204L33.8467 1.19914C33.7758 1.09505 33.5929 0.999827 33.2982 0.912984C33.0029 0.826323 32.6253 0.811991 32.1649 0.869745L27.0668 0.904239C26.9842 0.875574 26.8663 0.878246 26.7126 0.912984C26.5592 0.947721 26.4824 0.965151 26.4824 0.965151L26.3937 1.00857L26.3233 1.06074C26.2642 1.09523 26.1993 1.1559 26.1284 1.24262C26.0579 1.32904 25.999 1.43046 25.9519 1.54603C25.3968 2.94469 24.7657 4.24509 24.0575 5.44717C23.6208 6.16396 23.2197 6.78516 22.8535 7.31114C22.4877 7.83693 22.1809 8.22432 21.9332 8.47265C21.6852 8.72121 21.4614 8.92034 21.2604 9.07077C21.0597 9.22126 20.9065 9.28484 20.8004 9.26158C20.694 9.23832 20.5939 9.21525 20.4991 9.19217C20.334 9.08808 20.2012 8.94652 20.1011 8.76737C20.0005 8.58821 19.9328 8.36273 19.8974 8.09108C19.8622 7.81926 19.8413 7.58545 19.8354 7.38887C19.8298 7.19253 19.8324 6.91481 19.8444 6.55651C19.8566 6.19803 19.8622 5.95547 19.8622 5.8283C19.8622 5.38899 19.8709 4.9122 19.8884 4.39782C19.9063 3.88344 19.9207 3.47589 19.9328 3.17564C19.9449 2.87509 19.9504 2.55711 19.9504 2.22189C19.9504 1.88666 19.9296 1.62376 19.8884 1.43295C19.8478 1.24238 19.7853 1.0574 19.7031 0.878064C19.6203 0.698913 19.4991 0.560328 19.3401 0.461946C19.1809 0.363686 18.9828 0.285709 18.7472 0.227773C18.1216 0.089128 17.325 0.0141272 16.3571 0.00246715C14.1621 -0.02061 12.7518 0.118217 12.1263 0.418767C11.8784 0.545753 11.6542 0.719256 11.4537 0.938733C11.2412 1.19313 11.2115 1.33196 11.3649 1.35479C12.0731 1.4587 12.5745 1.70726 12.8696 2.10024L12.9759 2.30849C13.0586 2.45873 13.1412 2.72473 13.2238 3.10611C13.3064 3.48749 13.3596 3.90937 13.3831 4.37153C13.442 5.21548 13.442 5.93792 13.3831 6.5389C13.324 7.14012 13.2682 7.60816 13.2149 7.94339C13.1617 8.27862 13.082 8.55026 12.9759 8.75826C12.8696 8.96632 12.7988 9.09348 12.7633 9.13964C12.7279 9.18579 12.6984 9.21488 12.675 9.2263C12.5216 9.28387 12.3621 9.3132 12.1969 9.3132C12.0316 9.3132 11.8311 9.23219 11.5951 9.07029C11.3592 8.90838 11.1143 8.68599 10.8605 8.40275C10.6068 8.11944 10.3205 7.72355 10.0018 7.215C9.68328 6.70645 9.3528 6.10541 9.01055 5.41188L8.72738 4.90892C8.55036 4.58535 8.30855 4.11422 8.00169 3.49593C7.69465 2.8774 7.42327 2.27909 7.18734 1.70113C7.09304 1.45839 6.95136 1.2736 6.76256 1.14643L6.67396 1.09426C6.61505 1.04811 6.5205 0.999098 6.39079 0.946871C6.26089 0.894704 6.12535 0.857294 5.98361 0.834278L1.13317 0.868773C0.637516 0.868773 0.301211 0.978753 0.12413 1.19841L0.0532607 1.30232C0.0178569 1.3602 0 1.45263 0 1.57985C0 1.70702 0.0354038 1.8631 0.106273 2.0479C0.814349 3.67787 1.58437 5.24986 2.41633 6.76408C3.24828 8.27831 3.97124 9.49806 4.58476 10.4222C5.19841 11.3471 5.82389 12.22 6.46122 13.0404C7.09856 13.8612 7.52042 14.3871 7.72683 14.6182C7.93349 14.8497 8.09581 15.0228 8.21381 15.1384L8.65645 15.5544C8.93968 15.8319 9.35559 16.1642 9.90438 16.5514C10.4533 16.9388 11.061 17.3201 11.7278 17.6961C12.3947 18.0715 13.1705 18.3778 14.0557 18.6147C14.9408 18.8519 15.8023 18.947 16.6403 18.9011H18.6761C19.089 18.8662 19.4018 18.739 19.6144 18.5195L19.6848 18.4326C19.7322 18.3637 19.7765 18.2565 19.8174 18.1122C19.8589 17.9678 19.8795 17.8086 19.8795 17.6354C19.8674 17.1385 19.906 16.6906 19.9943 16.2919C20.0825 15.8932 20.1831 15.5927 20.2956 15.3903C20.408 15.188 20.5348 15.0174 20.676 14.8791C20.8175 14.7404 20.9183 14.6564 20.9775 14.6275C21.0362 14.5984 21.0832 14.5787 21.1186 14.5668C21.4018 14.4744 21.7351 14.5639 22.1191 14.8358C22.5027 15.1075 22.8625 15.4429 23.199 15.8415C23.5354 16.2405 23.9395 16.6881 24.4115 17.1851C24.8838 17.6822 25.2967 18.0517 25.6506 18.2948L26.0046 18.5029C26.2409 18.6417 26.5478 18.7689 26.9255 18.8845C27.3025 19 27.6329 19.0289 27.9165 18.9711L32.4482 18.9019C32.8964 18.9019 33.2452 18.8292 33.4926 18.685C33.7404 18.5405 33.8877 18.3813 33.9352 18.2082C33.9826 18.0349 33.9851 17.8382 33.9442 17.6184C33.9022 17.3991 33.8609 17.2457 33.8197 17.1591Z" transform="translate(0.180664 0.916748)" fill="#3EC7C6"/>
</svg>
