<svg width="10" height="9" viewBox="0 0 10 9" fill="none" xmlns="http://www.w3.org/2000/svg">
<path d="M0.353144 9H9.64686C9.84496 9 10 8.84902 10 8.6561V0.981361C10 0.788444 9.84496 0.637465 9.64686 0.637465H7.89836V0.343896C7.89836 0.150979 7.74332 1.59983e-08 7.54522 1.59983e-08C7.34711 1.59983e-08 7.19208 0.150979 7.19208 0.343896V0.637465H2.86822V0.343896C2.86822 0.150979 2.71318 1.59983e-08 2.51507 1.59983e-08C2.31697 1.59983e-08 2.16193 0.150979 2.16193 0.343896V0.637465H0.353144C0.155039 0.637465 8.21425e-09 0.788444 8.21425e-09 0.981361V8.66449C8.21425e-09 8.84902 0.163652 9 0.353144 9ZM0.706288 1.32526H2.16193V1.50979C2.16193 1.7027 2.31697 1.85368 2.51507 1.85368C2.71318 1.85368 2.86822 1.7027 2.86822 1.50979V1.32526H7.19208V1.50979C7.19208 1.7027 7.34711 1.85368 7.54522 1.85368C7.74332 1.85368 7.89836 1.7027 7.89836 1.50979V1.32526H9.30233V2.21435H0.706288V1.32526ZM0.706288 2.90214H9.29371V8.3206H0.706288V2.90214Z" fill="#56CECD"/>
<path d="M5.43497 -2.55972e-07H0.353144C0.155039 -2.55972e-07 -3.2857e-08 0.150979 -3.2857e-08 0.343896C-3.2857e-08 0.536813 0.155039 0.687791 0.353144 0.687791H5.43497C5.63307 0.687791 5.78811 0.536813 5.78811 0.343896C5.78811 0.150979 5.63307 -2.55972e-07 5.43497 -2.55972e-07Z" transform="translate(2.11035 4.47903)" fill="#56CECD"/>
<path d="M2.89406 0H0.353144C0.155039 0 -3.2857e-08 0.150978 -3.2857e-08 0.343895C-3.2857e-08 0.536813 0.155039 0.687791 0.353144 0.687791H2.89406C3.09216 0.687791 3.2472 0.536813 3.2472 0.343895C3.2472 0.150978 3.09216 0 2.89406 0Z" transform="translate(2.11035 6.13981)" fill="#56CECD"/>
</svg>
